<svg xmlns="http://www.w3.org/2000/svg" viewBox="0 0 375 200"><defs><style>.a,.ci{fill:#4298b4;}.ac,.b{fill:#7bb7ca;}.c{fill:#67acc3;}.d{fill:#b3d5e1;}.e{fill:#a0cbd9;}.ct,.f{fill:#8e7e73;}.cw,.g{fill:#74665b;}.bc,.h{fill:#2b8b62;}.aa,.i{fill:#47ad82;}.ad,.at,.cp,.eb,.j,.m,.u,.z{fill:#1d2432;}.cp,.j{opacity:0.2;}.k{fill:#f6f6f7;}.aa,.ab,.ac,.ad,.ae,.af,.ag,.ah,.ai,.aj,.av,.aw,.ax,.ay,.az,.ba,.bb,.bc,.bd,.be,.bf,.bg,.bh,.ch,.ci,.cj,.ck,.cl,.cm,.cn,.co,.cp,.cq,.cr,.cs,.ct,.cu,.cv,.cw,.cx,.cy,.cz,.da,.db,.dd,.de,.df,.dg,.dh,.di,.dj,.dk,.dn,.do,.dp,.dq,.dr,.ds,.dt,.du,.dv,.dw,.dx,.dy,.dz,.ea,.eb,.ec,.ed,.ee,.ef,.eg,.k,.l,.u,.z{fill-rule:evenodd;}.l{fill:#fff;}.ad,.m,.u{opacity:0.05;}.dj,.n{fill:#787f8d;}.o{fill:#9a9fa9;}.p{fill:#cccfd4;}.cr,.q{fill:#68707f;}.ec,.r{fill:#89909b;}.s{fill:#bbbfc6;}.t{fill:#dddfe2;}.v{fill:#33a474;}.w{fill:#70bf9d;}.af,.x{fill:#86b264;}.cz,.y{fill:#a0cf7e;}.z{opacity:0.05;}.ad,.z{isolation:isolate;}.ab{fill:#8dc1d2;}.ae,.bm{fill:#f4d75c;}.ag,.bn{fill:#fff7ae;}.ah,.bq{fill:#72cbcc;}.ai{fill:#ecf4f7;}.aj{fill:#b2879c;}.ak,.bb{fill:#8a6651;}.al,.bd{fill:#267a56;}.am,.bf{fill:#84c8ab;}.an,.av{fill:#dfbda5;}.ao,.aw{fill:#c2977b;}.ap,.ay{fill:#648e43;}.aq,.ba{fill:#44622d;}.ar,.az{fill:#5a753d;}.as{fill:#eeeff1;}.au,.be{fill:#e7c9b5;}.ax,.bk{fill:#709d52;}.bg,.ca{fill:#b3889d;}.bh,.cc{fill:#96637c;}.bi{fill:#f1d69c;}.bj{fill:#f6e6c4;}.bl{fill:#eece88;}.bo{fill:#359496;}.bp{fill:#4fa9aa;}.br{fill:#94d5d5;}.bs,.dd{fill:#88619a;}.bt{fill:#9f80ae;}.bu{fill:#c3b0cc;}.bv,.dr{fill:#947125;}.bw,.cu{fill:#aa822b;}.bx,.cy{fill:#c29431;}.by{fill:#e4ae3a;}.bz,.dv{fill:#f4deb0;}.cb,.dn{fill:#734d61;}.cd{fill:#d1a1b8;}.ce,.co{fill:#3e90aa;}.cf{fill:#55a2bb;}.cg{fill:#3da87b;}.ch{fill:#347990;}.cj{fill:#50a8a9;}.ck{fill:#369395;}.cl{fill:#72cacb;}.cm{fill:#454d5d;}.cn{fill:#8bdfdb;}.cq{fill:#2e3544;}.cs{fill:#1c7678;}.cv{fill:#5f5044;}.cx{fill:#886822;}.da{fill:#c0db8e;}.db{fill:#5e436b;}.dc{fill:#493551;}.de{fill:#9471a4;}.df{fill:#7a578a;}.dg{fill:#95637c;}.dh{fill:#583f64;}.di{fill:#3d4554;}.dk{fill:#d0a0b7;}.dl{fill:#734d60;}.dm{fill:#735283;}.do{fill:#543042;}.dp{fill:#2d9368;}.dq{fill:#7d5f1f;}.ds{fill:#9f7928;}.dt{fill:#b68b2e;}.du{fill:#d8a537;}.dw{fill:#cbac14;}.dx{fill:#e4c728;}.dy{fill:#755800;}.dz{fill:#9d7700;}.ea{fill:#846400;}.ed{fill:#51596a;}.ee{fill:#f3d65d;}.ef{fill:#bb8e2d;}.eg{fill:#f9eed7;}</style></defs><rect class="a" width="375" height="200"/><polygon class="b" points="308.3 58.31 299.86 40.25 288.12 42.99 279.55 39.83 276.72 29.02 269.46 26.11 252.07 24.25 223.46 43.07 208.41 50.14 229.03 75.78 278.06 79.15 308.3 58.31"/><polygon class="c" points="276.72 29.02 262.52 42.69 272.63 61.1 269.29 69.86 278.61 64.7 288.12 42.99 276.72 29.02"/><polygon class="c" points="313.1 54.81 295.25 60.3 299.86 40.25 313.1 54.81"/><polygon class="d" points="252.31 19.23 223.46 43.07 230.22 43.49 236.56 45.41 254.44 30.62 264.38 32.96 269.46 26.11 252.31 19.23"/><polygon class="d" points="311.97 56.71 314.44 59.47 323.61 59.64 307.07 65.13 311.97 56.71"/><polygon class="b" points="210.39 46.74 193 28.92 185.73 34.44 175.79 34.66 169.06 33.87 165.15 30.96 135.94 15.71 130.22 13.16 128.28 8.2 108.95 13.15 99.63 26.49 91.86 36.7 76.02 44.72 59.27 56 61.9 82.47 108.64 62.39 184.22 55.3 210.39 46.74"/><polygon class="c" points="128.28 8.2 114.52 24.05 124.74 34.66 129.56 27.4 126.2 20.49 135.94 15.71 128.28 8.2"/><polygon class="c" points="82.38 47.94 66.14 60.82 116.33 64.8 124.74 34.66 91.33 51.89 82.38 47.94"/><polygon class="c" points="175.79 34.66 162.72 45.3 146.13 38.58 165.15 30.96 175.79 34.66"/><polygon class="c" points="193 28.92 180.01 44.46 171.11 47.12 157.35 54.09 185.68 56.45 209.89 48.08 193 28.92"/><polygon class="d" points="193 28.92 175.79 34.66 179.63 36.2 176.53 41.07 187.86 35.07 191.54 36 193 28.92"/><polygon class="e" points="193 28.92 208.97 44.5 204.1 48.2 194.36 45.89 190.26 40.64 187.86 35.07 193 28.92"/><polygon class="d" points="108.18 12.38 99.63 26.49 107.38 23.39 105.97 19.74 110.55 15.71 113.07 18.8 128.28 8.2 108.18 12.38"/><polygon class="d" points="101.9 31.66 99.09 27.39 76.02 44.72 96.98 41.32 111.26 32.28 101.9 31.66"/><polygon class="f" points="318.47 51.43 321.78 50.43 321.49 49.65 318.36 50.3 318.47 51.43"/><polygon class="g" points="318.7 43.91 318.84 55.85 318.19 55.81 317.48 43.69 318.7 43.91"/><polygon class="f" points="317.98 45.06 318.19 55.81 317.38 55.77 317.26 43.45 317.98 45.06"/><polygon class="h" points="318.02 47.27 328.21 42.51 320.73 35.89 317.98 33.45 315.13 40.02 318.02 47.27"/><polygon class="i" points="314.98 34.15 312.9 36.73 306.52 44.66 318.02 47.27 316.91 37.5 314.98 34.15"/><polygon class="j" points="312.9 36.73 317.29 40.59 320.73 35.89 312.9 36.73"/><polygon class="i" points="315.02 27.27 313.25 29.3 308.13 35.82 316.91 37.5 318.78 33.79 315.02 27.27"/><polygon class="h" points="315.4 29.99 316.91 37.5 324.57 34.27 317.31 28.66 316.02 27.92 315.4 29.99"/><polygon class="j" points="313.16 29.4 315.83 32.13 317.31 28.66 313.16 29.4"/><polygon class="h" points="312.92 16.45 313.09 28.27 315.4 29.99 319.36 27.23 312.92 16.45"/><polygon class="i" points="312.92 16.45 309.43 28.43 315.4 29.99 312.92 16.45"/><polygon class="f" points="254.26 48.31 252.86 53.47 252.09 53.42 253.33 45.76 254.26 48.31"/><polygon class="g" points="254.84 47.54 253.7 53.51 252.86 53.47 253.85 48.85 254.2 46.23 254.84 47.54"/><polygon class="h" points="257.95 35.62 259.07 37.73 262.1 46.34 253.85 48.85 254.67 37.66 257.95 35.62"/><polygon class="i" points="255 34.22 253.09 36.18 247.07 44.68 253.85 48.85 255.76 38.68 255 34.22"/><polygon class="j" points="253.09 36.18 255.19 41.73 259.07 37.73 253.09 36.18"/><polygon class="h" points="259.98 28.65 262.1 36.73 255.76 38.68 257.57 29.13 259.98 28.65"/><polygon class="i" points="258.31 25.71 250.58 33.8 255.76 38.68 257.97 29.76 258.31 25.71"/><polygon class="j" points="256.01 28.11 257.25 32.65 259.98 28.65 256.01 28.11"/><polygon class="i" points="254.11 26.52 258.58 16.87 259.72 25.19 257.97 29.76 254.11 26.52"/><polygon class="h" points="258.58 16.87 261.99 27.53 257.97 29.76 258.58 16.87"/><polygon class="k" points="190.26 40.64 140.13 58.66 61.9 55.32 32.2 54.05 0.01 60.95 0 200 375 200 375.04 56.99 355.73 52.11 313.1 54.81 271.68 57.43 190.26 40.64"/><polygon class="l" points="0 84.94 61.9 66.17 72.72 67.33 135.15 71.94 196.03 51.49 263.08 73.98 313.1 73.38 375 83.1 375 200 0 200 0 84.94"/><polygon class="m" points="233.57 57.33 240.76 60.27 253.37 58.1 241.11 55.36 233.57 57.33"/><polygon class="g" points="241.01 45.55 241.78 58.02 240.92 58.22 239.35 45.95 241.01 45.55"/><polygon class="f" points="239.99 48 240.92 58.22 240.03 57.77 238.77 45.08 239.99 48"/><polygon class="h" points="239.99 48 251.74 42.45 244.26 34.23 241.97 31.71 237.66 35.34 239.99 48"/><polygon class="i" points="237.88 30.77 234.1 34.28 230.22 43.49 239.99 48 240.44 36.1 237.88 30.77"/><polygon class="j" points="234.1 34.28 240.26 40.7 244.26 34.23 234.1 34.28"/><polygon class="h" points="241 22.71 242.23 24.43 247.93 32.44 240.44 36.1 239 24.38 241 22.71"/><polygon class="i" points="238.28 23.36 237.03 24.89 230.22 33.16 240.44 36.1 240.02 25.57 238.28 23.36"/><polygon class="j" points="237.03 24.89 240.14 28.58 242.23 24.43 237.03 24.89"/><polygon class="h" points="238.37 9.21 244.46 23.29 240.02 25.57 238.48 20.94 238.37 9.21"/><polygon class="i" points="238.37 9.21 234.43 24.29 240.02 25.57 238.37 9.21"/><polygon class="m" points="77.57 66.11 81.86 62.23 89.01 61.65 99.97 63.79 82.14 68.03 77.57 66.11"/><polygon class="f" points="84.03 59.62 81.14 58.47 81.53 57.88 84.56 58.84 84.03 59.62"/><polygon class="g" points="88.06 47.94 85.14 65.78 84.29 66.11 86.15 49.67 88.06 47.94"/><polygon class="f" points="86.52 50.57 84.29 66.11 83.49 65.58 85.67 47.78 86.52 50.57"/><polygon class="h" points="93.59 33.14 101.5 46.65 86.52 50.57 87.43 35.04 89.1 31.36 93.59 33.14"/><polygon class="i" points="89.77 30.17 87.53 32.09 76.02 44.72 86.52 50.57 89.57 33.85 89.77 30.17"/><polygon class="j" points="87.53 32.09 88.66 38.82 93.59 33.14 87.53 32.09"/><polygon class="h" points="97.81 22.23 101.9 31.66 89.57 33.85 93.94 21.01 97.81 22.23"/><polygon class="i" points="95.28 19.64 92.92 21.3 83.06 28.22 89.57 33.85 95.12 22.91 95.28 19.64"/><polygon class="j" points="92.92 21.3 94.14 24.85 97.81 22.23 92.92 21.3"/><polygon class="h" points="97.23 10.86 101.2 21.38 95.12 22.91 95.06 16.89 97.23 10.86"/><polygon class="i" points="97.23 10.86 89.77 19 95.12 22.91 97.23 10.86"/><polygon class="g" points="51.76 57.84 51.23 60.87 52.67 68.79 53.37 68.19 53.04 54.77 51.76 57.84"/><polygon class="f" points="51.76 57.84 52.67 68.79 51.15 68.05 49.79 52.84 51.76 57.84"/><polygon class="h" points="52 59.62 65.29 55.46 52.68 38.17 49.34 33.59 47.48 35.75 52 59.62"/><polygon class="i" points="43.39 38.63 33.24 56.45 52 59.62 49.34 40.04 46.65 36.59 43.39 38.63"/><polygon class="j" points="43.39 38.63 50.11 45.71 52.68 38.17 43.39 38.63"/><polygon class="h" points="49.23 24.57 59.36 34.43 49.34 40.04 46.65 32.45 45.01 24.2 49.23 24.57"/><polygon class="i" points="43.2 22.79 41.88 25.46 36.21 36.94 49.34 40.04 46.68 26.82 43.2 22.79"/><polygon class="j" points="41.88 25.46 47.81 32.45 49.23 24.57 41.88 25.46"/><polygon class="h" points="41.54 9.46 51.76 22.34 46.68 26.82 43.33 19.52 41.54 9.46"/><polygon class="i" points="41.54 9.46 39.07 24.66 46.68 26.82 41.54 9.46"/><polygon class="m" points="17.97 88.21 35.06 90.42 40.89 87.31 33.08 83.12 17.97 88.21"/><polygon class="f" points="32.9 74.93 36.22 73.23 36.71 73.9 33.24 76.27 32.9 74.93"/><polygon class="f" points="29.01 71.71 21.73 73.89 22.07 74.76 29.86 73.02 29.01 71.71"/><polygon class="g" points="34.6 84.53 29.86 70.64 29.01 65.01 30.95 66.62 36.05 85.07 34.6 84.53"/><polygon class="f" points="29.86 67.43 34.6 84.53 33.69 84.85 26.63 65.01 29.86 67.43"/><polygon class="h" points="24.9 44.57 27.25 47 40.89 57.74 29.86 67.43 22.64 56.42 21.73 47.37 24.9 44.57"/><polygon class="i" points="18.51 46.43 17.28 49.05 8.09 64.54 29.86 67.43 23.55 49.36 18.51 46.43"/><polygon class="j" points="17.28 49.05 25.34 54.5 27.25 47 17.28 49.05"/><polygon class="h" points="20.25 32.26 21.59 33.56 32.18 43.85 23.55 49.36 18.77 38.31 18.51 33.75 20.25 32.26"/><polygon class="i" points="17.73 32.72 17.08 34.14 10.4 48.71 23.55 49.36 19.79 34.83 17.73 32.72"/><polygon class="j" points="17.08 34.14 20.81 38.78 21.59 33.56 17.08 34.14"/><polygon class="h" points="18.59 19.21 24.01 31.85 19.79 34.83 17.17 29.91 18.59 19.21"/><polygon class="i" points="18.59 19.21 12.96 33.09 19.79 34.83 18.59 19.21"/><polygon class="g" points="349.05 75.93 348.68 78.51 350.45 86.91 351.26 86.66 349.97 73.22 349.05 75.93"/><polygon class="f" points="349.05 75.93 350.45 86.91 349.42 87.22 346.45 72.88 349.05 75.93"/><polygon class="h" points="346.66 57.25 349.05 53.85 351.26 55.86 364.51 69.1 349.05 75.93 346.14 66.56 346.66 57.25"/><polygon class="i" points="343.38 53.28 341.38 55.78 332.96 69.58 349.05 75.93 346.66 57.25 343.38 53.28"/><polygon class="j" points="341.38 55.78 347.38 62.9 351.26 55.86 341.38 55.78"/><polygon class="h" points="348.07 37.51 349.19 38.79 359.95 53.18 346.66 57.25 344.46 39.77 348.07 37.51"/><polygon class="i" points="344.19 36.62 342.44 38.65 333.31 53.53 346.66 57.25 345.76 40.47 344.19 36.62"/><polygon class="j" points="342.44 38.65 346 44.95 349.19 38.79 342.44 38.65"/><polygon class="h" points="346.81 12.52 353.01 36.91 345.76 40.47 345.01 32.34 346.81 12.52"/><polygon class="i" points="346.81 12.52 338.49 36.48 345.76 40.47 346.81 12.52"/><polygon class="m" points="35.02 94.79 39.27 95.42 45.82 93.31 50.81 96.82 61.6 95.94 64.4 92.06 71.52 90.8 77.8 91.04 85.52 88.73 80.52 88.21 66.28 83.12 42.78 88.21 35.02 94.79"/><polygon class="n" points="62.09 66.74 56.55 69.66 59.84 91.17 76.02 87.61 72.72 67.33 62.09 66.74"/><polygon class="o" points="45.82 66.74 44.32 82.28 59.84 91.17 58.35 70.15 53.63 67.04 45.82 66.74"/><polygon class="n" points="55.42 75.9 59.84 91.17 47.91 94.35 47.91 77.18 55.42 75.9"/><polygon class="o" points="42.44 76.81 39.27 92.56 47.91 94.35 50.38 78.15 48.93 76.81 42.44 76.81"/><polygon class="p" points="48.66 74.39 42.44 76.81 50.38 78.15 55.42 75.9 48.66 74.39"/><polygon class="q" points="51.55 86.58 53.2 85.75 55.65 85.75 57.36 95.06 50.81 96.82 50.38 93.93 51.55 86.58"/><polygon class="r" points="42.78 95.52 44.32 84.78 48.93 85.41 51.55 86.58 50.81 96.82 42.78 95.52"/><polygon class="p" points="44.32 84.78 49.62 83.12 55.65 85.75 51.55 86.58 44.32 84.78"/><polygon class="q" points="40.89 84.53 41.54 93.03 35.02 94.79 35.1 86.32 40.89 84.53"/><polygon class="r" points="29.85 85.31 35.37 85.31 36.22 87.31 35.02 94.79 29.04 93.43 29.85 85.31"/><polygon class="p" points="29.85 85.31 36.22 83.12 40.89 84.53 36.22 87.31 29.85 85.31"/><polygon class="p" points="45.82 66.74 58.35 70.15 72.72 67.33 60.83 63.94 45.82 66.74"/><polygon class="q" points="70.61 81.97 69.3 85.22 71.52 90.8 80.52 88.21 77.84 81.82 70.61 81.97"/><polygon class="r" points="65.02 81.97 69.88 82.22 70.61 83.39 71.52 90.8 65.43 89.94 65.02 81.97"/><polygon class="p" points="65.02 81.97 74.64 79.14 77.84 81.82 70.61 83.39 65.02 81.97"/><polygon class="m" points="20.24 128.57 31.71 127.82 36.12 124.97 39.99 123.64 42.78 126 48.08 126.28 51.13 123.38 45.96 121.75 37.86 121.75 34.56 120.85 29.61 120.43 23.6 123.64 20.24 128.57"/><polygon class="n" points="34.45 106.36 34.56 120.85 28.19 123.01 24.02 122.61 29.78 106.58 34.45 106.36"/><polygon class="o" points="24.77 107.33 20.93 121.11 25.82 122.3 30.68 108.15 29.78 106.58 24.77 107.33"/><polygon class="p" points="24.77 107.33 30.68 108.15 34.45 106.36 29.7 105.02 24.77 107.33"/><polygon class="n" points="47.11 119.64 48.08 124.72 42.78 126 42.16 121.18 47.11 119.64"/><polygon class="o" points="37.2 120.67 36.12 124.97 42.78 126 43.24 121.75 42.16 120.44 37.2 120.67"/><polygon class="p" points="41.98 118.99 37.2 120.67 43.24 121.75 47.11 119.64 41.98 118.99"/><polygon class="q" points="26.62 118.18 29.13 125.91 20.24 128.57 18.92 119.99 26.62 118.18"/><polygon class="o" points="10.25 119.08 7.67 125.91 20.24 128.57 20.93 121.11 16.6 118.7 10.25 119.08"/><polygon class="p" points="10.25 119.08 18.02 115.99 26.62 118.18 20.93 121.11 10.25 119.08"/><polygon class="m" points="206.61 66.1 209.65 64.96 212.25 69.14 226.34 68.39 225.17 64.96 231.59 63.42 223.37 56.85 206.93 56.73 202.85 58.7 206.61 66.1"/><polygon class="r" points="203.17 50.7 202.85 58.7 207.35 60.71 209.57 55.7 208.83 52.22 203.17 50.7"/><polygon class="s" points="208.14 53.29 203.17 50.7 211.19 48.66 211.19 51.8 208.14 53.29"/><polygon class="q" points="223.46 43.07 228.08 62.24 217.47 63.73 215.1 46.89 223.46 43.07"/><polygon class="o" points="208.97 44.5 207.35 60.71 217.47 63.73 216.15 48.08 214.19 44.46 208.97 44.5"/><polygon class="t" points="213.94 40.83 208.97 44.5 216.15 48.08 223.46 43.07 213.94 40.83"/><polygon class="n" points="220.41 56.17 221.01 67.14 212.25 69.14 212.04 59.33 220.41 56.17"/><polygon class="o" points="205.3 55.11 206.61 66.1 212.25 69.14 212.7 60.2 210.37 57.15 205.3 55.11"/><polygon class="t" points="208.14 53.29 205.3 55.11 212.7 60.2 220.41 56.17 208.14 53.29"/><polygon class="m" points="200.98 74.5 210.83 72.91 206.15 70.19 200.98 74.5"/><polygon class="n" points="207.06 68.61 207.91 72.1 200.98 74.5 201.38 69.73 207.06 68.61"/><polygon class="o" points="197.17 68.22 196.53 72.67 200.98 74.5 202.13 70.04 201.38 68.88 197.17 68.22"/><polygon class="s" points="197.17 68.22 203.17 66.82 207.06 68.61 202.13 70.04 197.17 68.22"/><polygon class="m" points="356.89 103.68 369.18 101.87 372.12 97.94 355.33 93.83 356.89 103.68"/><polygon class="n" points="364.87 94.4 366.13 99.98 356.89 103.68 356.14 99.52 364.87 94.4"/><polygon class="n" points="358.83 83.97 360.54 95.53 352.11 99.52 350.3 89.75 358.83 83.97"/><polygon class="o" points="337.41 86.59 335.59 96.9 352.11 99.52 352.68 90.81 349.49 87.16 337.41 86.59"/><polygon class="t" points="337.41 86.59 344.59 82.15 358.83 83.97 352.68 90.81 337.41 86.59"/><polygon class="o" points="343.05 98.08 341.97 102.67 356.89 103.68 357.37 100.42 354.85 98.58 343.05 98.08"/><polygon class="t" points="344.93 95.31 352.35 97 360.07 93.09 364.87 94.4 357.37 100.42 343.05 98.08 344.93 95.31"/><polygon class="m" points="189.34 67.15 196.53 67.38 203.6 63.8 196.47 61.1 189.34 67.15"/><polygon class="n" points="198.18 58.59 199.78 65.11 189.34 67.15 188.95 59.7 198.18 58.59"/><polygon class="o" points="181.17 59.98 180.23 65.53 189.34 67.15 190.06 61.35 188.95 59.7 181.17 59.98"/><polygon class="t" points="181.17 59.98 189.03 56.03 198.18 58.59 190.06 61.35 181.17 59.98"/><polygon class="m" points="96.2 95.21 104.52 93.93 105.55 92.07 98.63 90.66 96.2 95.21"/><polygon class="o" points="89.93 93.43 91.66 86.63 97.53 88.07 96.2 95.21 89.93 93.43"/><polygon class="n" points="96.64 88.51 96.67 87.67 99.61 87.24 101.07 93.48 96.2 95.21 96.64 88.51"/><polygon class="p" points="91.66 86.63 96.2 85.38 99.61 87.24 96.64 88.51 91.66 86.63"/><polygon class="m" points="229.94 75.78 239.07 75.11 241.3 73.45 236 71.69 229.94 75.78"/><polygon class="o" points="222.64 73.81 224.59 68.47 232.15 69.8 229.94 75.78 222.64 73.81"/><polygon class="n" points="231.01 70.31 231.93 69.14 236.97 69.14 238.08 73.52 229.94 75.78 231.01 70.31"/><polygon class="p" points="224.59 68.47 230.56 66.94 236.97 69.14 231.01 70.31 224.59 68.47"/><polygon class="m" points="339.29 176 353.54 174.79 356.89 171.01 344.57 168.24 339.29 176"/><polygon class="o" points="332.61 155.34 329 173.04 339.29 176 345.02 158.14 332.61 155.34"/><polygon class="n" points="342.79 159.25 343.41 157.17 348.32 157.16 349.86 173.04 339.29 176 342.79 159.25"/><polygon class="t" points="332.61 155.34 340.52 152.71 348.32 157.16 342.79 159.25 332.61 155.34"/><polygon class="u" points="331.27 131.43 337.25 129.71 344.51 131.43 337.25 134.83 331.27 131.43"/><polygon class="v" points="337.03 132.5 337.96 132.02 338.69 125 337.59 125.4 336.41 127.61 337.03 132.5"/><polygon class="w" points="336.21 125.4 336.46 132.02 337.03 132.5 337.25 127.16 336.21 125.4"/><polygon class="x" points="336.77 115.02 345.59 124.01 337.25 127.16 335.38 122.65 336.77 115.02"/><polygon class="y" points="329.55 123.94 337.25 127.16 336.77 115.02 329.55 123.94"/><polygon class="z" points="144.33 136.91 139.64 134.94 132.8 136.91 139.7 139.16 144.33 136.91"/><polygon class="aa" points="139.51 136.91 139.97 129.83 137.97 129.16 139.51 136.91"/><polygon class="aa" points="139.02 136.91 136.81 131.56 135.47 133.23 139.02 136.91"/><polygon class="aa" points="140.24 136.74 141.4 131.44 143.71 132.37 140.24 136.74"/><polygon class="ab" points="141.13 133.18 146.3 131.56 141.13 127.92 141.13 133.18"/><polygon class="ac" points="139.86 131.56 141.29 125.39 136.03 128.12 139.86 131.56"/><polygon class="ab" points="136.03 133.81 137.24 130.33 131.73 132.73 136.03 133.81"/><polygon class="ad" points="218.48 190.23 213.79 188.25 206.94 190.23 213.85 192.47 218.48 190.23"/><polygon class="aa" points="213.66 190.23 214.12 183.14 212.12 182.47 213.66 190.23"/><polygon class="aa" points="213.17 190.23 210.96 184.87 209.61 186.54 213.17 190.23"/><polygon class="aa" points="214.39 190.06 215.54 184.75 217.86 185.68 214.39 190.06"/><polygon class="ae" points="215.12 186.7 220.71 184.97 215.6 180.92 215.12 186.7"/><polygon class="ae" points="213.98 185.18 215.7 178.38 209.91 181.39 213.98 185.18"/><polygon class="ae" points="210.32 187.3 211.66 183.46 205.6 186.11 210.32 187.3"/><polygon class="u" points="24.64 152.71 29.52 150.71 35.22 153.14 29.73 154.71 24.64 152.71"/><polygon class="v" points="29.05 153.14 29.56 153.03 30.24 148.14 29.73 148.61 28.79 149.81 29.05 153.14"/><polygon class="w" points="28.58 152.93 28.6 148.27 29.73 148.61 29.49 149.77 29.05 153.14 28.58 152.93"/><polygon class="x" points="30.11 142.11 35.39 148.14 29.49 149.77 28.71 147.22 30.11 142.11"/><polygon class="y" points="29.49 149.77 23.96 147.24 30.11 142.11 29.49 149.77"/><polygon class="u" points="344.04 139.02 348.12 137.94 353.78 139.83 346.99 141.38 344.04 139.02"/><polygon class="v" points="347.43 139.83 348.02 139.58 349.06 136.09 348.12 136.19 347.63 137.95 347.43 139.83"/><polygon class="w" points="346.74 139.49 347.18 136.04 348.12 136.19 347.43 139.83 346.74 139.49"/><polygon class="x" points="348.22 128.56 353.26 135.38 348.01 136.96 347.33 133.26 348.22 128.56"/><polygon class="y" points="348.22 128.56 342.43 134.99 348.01 136.96 348.22 128.56"/><polygon class="u" points="112.73 127.19 116.11 125.44 120.72 126.98 116.46 128.35 112.73 127.19"/><polygon class="af" points="116.56 124.53 115.83 127.55 114.77 122.65 116.56 124.53"/><polygon class="ae" points="111.88 122.58 116.31 120.03 121.04 121.97 116.56 124.53 111.88 122.58"/><polygon class="ag" points="114.59 122.3 116.29 121.39 117.63 122.09 116.01 123.11 114.59 122.3"/><polygon class="m" points="250.37 172.64 255.68 170.54 260.95 173.08 254.96 175.37 250.37 172.64"/><polygon class="af" points="253.66 168.94 255.48 173.94 255.94 166.04 253.66 168.94"/><polygon class="ah" points="245.23 166.04 253.66 168.94 260.38 165.11 252.04 162.65 245.23 166.04"/><polygon class="ai" points="249.58 165.79 252.24 164.72 254.96 165.26 253.01 167.06 249.58 165.79"/><polygon class="u" points="224.24 95.15 226.73 96.38 229.42 95.15 226.53 94.11 224.24 95.15"/><polygon class="af" points="226.92 93.66 225.85 95.88 225.49 92.13 226.92 93.66"/><polygon class="aj" points="223.68 91.58 226.87 90.28 230.16 92.28 226.92 93.66 223.68 91.58"/><polygon class="ai" points="226.02 91.77 226.92 91.31 228.05 91.97 226.92 92.74 226.02 91.77"/><polygon class="u" points="233 105.66 237.94 104.32 233.78 103.16 230.36 104.67 233 105.66"/><polygon class="af" points="234.57 102.21 233 105.66 233.15 100.23 234.57 102.21"/><polygon class="ah" points="239.3 99.17 234.1 97.75 229.96 100.23 234.57 102.21 239.3 99.17"/><polygon class="ai" points="235.99 99.54 234.47 99.06 232.44 99.94 234.63 100.67 235.99 99.54"/><polygon class="u" points="191.22 87.44 196.12 88.7 198.91 87.21 195.4 86.31 191.22 87.44"/><polygon class="af" points="194.89 84.77 196.11 88.44 196.8 82.5 194.89 84.77"/><polygon class="ah" points="189.02 82.71 193.58 80.68 199.31 81.94 194.89 84.77 189.02 82.71"/><polygon class="ai" points="192.47 82.41 193.81 81.72 195.65 82.41 194.16 83.37 192.47 82.41"/><polygon class="m" points="101.95 105.3 123.81 111.6 144.93 108.43 148.95 103.52 125.63 96.8 101.95 105.3"/><polygon class="ak" points="152.53 55.51 154.34 53.91 155.9 51.26 155.78 45.19 152.15 48.88 151.08 53.12 152.53 55.51"/><polygon class="al" points="162.08 34.08 161.52 34.49 159.03 38.91 157.99 40.37 158.25 43.35 155.9 44.94 156.25 46.11 154.79 49.5 153.43 50.39 151.84 53.88 154.34 53.91 157.07 46.15 159.59 44.03 159.5 40.31 162.08 34.08"/><polygon class="i" points="155.1 50.21 156.25 46.11 155.9 44.94 153.43 50.39 155.1 50.21"/><polygon class="am" points="161.52 34.49 162.08 34.08 161.14 34.15 157.99 40.37 159.29 39.62 161.52 34.49"/><polygon class="an" points="150.36 50.39 151.31 47.13 155.31 44.53 155.9 44.94 155.1 46.67 153.44 48.12 153.43 50.39 152.73 51.93 151.08 53.12 150.36 50.39"/><polygon class="ao" points="158.29 45.12 157.99 51.94 154.34 53.91 155.9 44.94 158.29 45.12"/><polygon class="al" points="129.81 99.36 129.81 102.25 133.38 101.15 135.41 99.61 136.08 97 129.81 99.36"/><polygon class="al" points="114.45 96.75 113.37 102.27 116.47 102.25 119.4 100.4 120.06 99.01 114.45 96.75"/><polygon class="i" points="135.41 99.61 129.81 102.25 129.81 103.76 134.56 104.16 140.4 103.76 135.41 99.61"/><rect class="al" x="129.81" y="103.76" width="10.6" height="1.43"/><polygon class="i" points="119.4 100.4 120.71 104.55 117.04 105.27 112.85 104.55 113.37 102.27 119.4 100.4"/><rect class="al" x="112.85" y="104.55" width="7.86" height="1.43"/><polygon class="ao" points="108 77.78 105.81 80.29 104.9 81.34 106.07 82.43 108.93 78.47 108 77.78"/><polygon class="an" points="105.81 73.72 103.02 74.77 101.89 77.23 103.33 80.61 104.9 81.34 104.9 81.34 107.11 79.08 105.81 73.72"/><polygon class="ak" points="108.1 77.65 103.96 72.73 103.02 74.77 107.11 79.08 108 77.78 108.1 77.65"/><polygon class="ao" points="104.9 81.34 101.89 77.23 100.73 81.23 102.63 83.98 104.9 81.34 104.9 81.34"/><polygon class="ap" points="119.88 59.38 117.77 59.06 112.22 58.48 119.64 64.46 120.16 66.22 123.54 73.11 128.09 68.67 119.88 59.38"/><polygon class="aq" points="117.04 67.28 119.49 71.58 122.06 72.73 123.91 70.1 120.16 63.58 117.04 67.28"/><polygon class="ap" points="140.43 64.92 129.49 81 123.91 70.1 119.49 71.58 111.12 94.89 122.43 101.74 122.47 101.77 141.24 94.38 140.43 64.92"/><polygon class="x" points="136.48 66.13 132.78 72.6 130.89 70.91 128.09 68.67 123.91 70.1 122.62 100.17 139.35 64.82 136.63 65.75 136.48 66.13"/><polygon class="x" points="112.22 58.48 103.67 69.86 113.98 71.43 118.04 61.51 112.22 58.48"/><polygon class="ap" points="103.66 69.86 103.67 69.86 107.77 78.09 110.09 77.29 117.77 61.92 103.66 69.86"/><polygon class="ar" points="118.04 61.51 107.77 77.23 111.5 76.95 113.64 75.66 120.16 63.58 118.04 61.51"/><polygon class="al" points="107.11 79.08 112.63 77.23 113.64 75.66 107.77 77.23 103.67 69.86 103.66 69.86 102.62 71.22 107.11 79.08"/><polygon class="r" points="142.84 42.48 136.94 43.62 137.34 46.57 137.94 50.14 140.92 48.06 142.84 42.48"/><polygon class="t" points="136.25 39.77 137.88 44.2 142.84 42.48 136.25 39.77"/><polygon class="r" points="138.57 53.88 139.72 54.81 142.13 55.3 144.25 50.8 140.88 51.93 138.57 53.88"/><polygon class="s" points="140.92 48.06 136.94 48.06 138.57 53.88 144.25 50.8 140.92 48.06"/><polygon class="s" points="116.46 51.93 111.6 53.26 110.18 56.97 113.11 57.51 116.84 54.34 116.46 51.93"/><polygon class="r" points="115.83 48.53 109.07 50.31 111.6 53.26 116.2 54.13 117.53 51.93 115.83 48.53"/><polygon class="t" points="115.85 43.67 114.51 43.96 113.5 42.66 109.07 50.31 115.98 49.35 115.85 43.67"/><polygon class="r" points="119.67 55.13 110.18 56.97 112.22 58.48 120.37 57.15 119.67 55.13"/><polygon class="r" points="137.09 39.71 137.11 39.77 137.1 39.71 137.09 39.71"/><polygon class="ap" points="153.3 59.74 149.3 51.66 145.88 55.95 142.06 63.9 153.3 59.74"/><polygon class="x" points="138.57 53.88 138.08 58.56 143.23 62.8 145.88 55.95 138.57 53.88"/><polygon class="ar" points="139.35 64.82 146.64 65.93 151.08 62.8 152.3 59.12 143.23 62.8 139.35 58.68 133.14 52.26 139.35 64.82"/><polygon class="al" points="150.36 50.39 149.3 51.66 152.3 59.12 146.64 65.93 148.23 66.15 154.24 59.54 150.36 50.39"/><polygon class="ap" points="136.63 65.75 139.35 64.82 137.99 62.05 136.63 65.75"/><polygon class="i" points="128.09 68.67 128.45 68.89 128.09 68.67 128.09 68.67"/><polygon class="al" points="137.02 62.1 135.64 65.82 135.51 66.13 136.63 65.75 137.99 62.05 137.47 60.99 137.02 62.1"/><polygon class="i" points="126.45 55.81 125.78 58.68 119.4 61.51 129.08 68.23 129.14 68.31 135.51 66.13 126.45 55.81"/><polygon class="am" points="117.68 61 119.4 61.51 126.93 58.68 116.2 54.13 113.11 57.51 117.68 61"/><polygon class="al" points="132.78 51.43 132.77 51.41 132.72 51.44 132.78 51.43"/><polygon class="al" points="128.45 67.25 113.11 57.51 112.22 58.48 128.09 68.67 133.94 76.25 137.13 66.13 128.45 67.25"/><polygon class="al" points="126.45 55.81 122.93 53.4 116.46 51.93 116.2 54.13 126.93 58.68 126.45 55.81"/><polygon class="an" points="138.99 50.67 135.47 30.1 129.61 25.59 125.9 28.73 118.19 28.23 116.84 29.45 119.64 34.9 124.43 54.66 131.49 52.71 138.99 50.67"/><polygon class="as" points="129.61 26.77 135.47 30.1 131.98 25.45 129.11 24.6 128.5 25.59 129.61 26.77"/><polygon class="t" points="129.11 24.6 123.2 22.87 123.34 27.27 126.53 30.1 129.61 26.77 129.11 24.6"/><polygon class="s" points="117.58 27.27 117.64 27.96 118.12 28.35 126.52 30.11 126.53 30.1 123.2 22.87 117.58 27.27"/><polygon class="ao" points="122.86 36.43 130.45 44.2 130.06 37.58 130.86 37.87 131.99 39.75 133.57 34.12 132.19 33.46 130.4 33.63 129.64 34.47 129 36.14 127.27 34.88 125.9 34.21 124.17 34.7 122.86 36.43"/><polygon class="ao" points="120.29 31.81 118.19 28.23 113.96 32.61 116.46 36.13 116.84 41.41 115.27 39.65 114.13 41.38 112.22 42.09 113.79 46.67 115.41 46.27 116.46 46.48 115.98 49.35 116.46 51.93 123.34 54.6 124.62 54.69 120.29 31.81"/><polygon class="ak" points="115.41 46.27 115.98 49.35 117.51 45.7 115.41 46.27"/><polygon class="ak" points="127.92 53.7 123.34 54.6 126.82 55.95 127.92 53.7"/><polygon class="ak" points="113.5 42.66 116.2 44.46 115.48 42.01 113.5 42.66"/><polygon class="al" points="122.62 100.17 111.12 94.89 110.61 96.5 122.43 101.74 122.47 101.77 141.28 96.12 141.24 94.38 122.62 100.17"/><polygon class="s" points="130.45 44.2 125.29 48.84 128.45 67.25 134.25 72.59 134.69 73.38 134.49 74.16 133.94 76.25 137.11 78.45 135 55.95 131.98 44.53 130.45 44.2"/><polygon class="as" points="137.72 72.06 140.43 64.92 137.34 46.57 132.86 43.67 131.98 44.53 137.11 78.45 138.85 75.07 137.96 73.62 137.47 72.91 137.72 72.06"/><rect class="aq" x="134.35" y="72.31" width="3.52" height="1.59" transform="translate(-9.5 21.46) rotate(-8.71)"/><polygon class="ak" points="134.33 47.2 129.52 48.02 129.3 47.04 134.11 46.22 134.33 47.2"/><circle class="at" cx="125.87" cy="38.98" r="0.9"/><circle class="at" cx="132.86" cy="37.4" r="0.9"/><polygon class="au" points="129.64 34.47 131.36 36.92 132.86 43.67 131.65 44.38 130.45 44.2 129.15 37.53 127.27 34.88 129.64 34.47"/><polygon class="r" points="111.26 32.28 114.13 41.38 115.05 41.05 117 42.18 117.57 35.02 115.32 33.7 118.19 28.23 117.58 27.27 111.26 32.28"/><polygon class="r" points="132.86 43.67 130.45 44.2 132.08 45.19 132.86 43.67"/><polygon class="r" points="125.62 33.37 125.9 34.21 122.86 36.43 122.47 35.44 125.62 33.37"/><polygon class="r" points="130.06 32.61 130.4 33.63 133.57 34.12 133.79 33.43 130.06 32.61"/><polygon class="av" points="251.94 80.73 250.78 81.81 252.87 85.3 253.62 83.01 251.94 80.73"/><polygon class="u" points="245.14 103.53 281.59 110.94 306.18 105.35 274.54 95.78 245.14 103.53"/><polygon class="av" points="286.5 107.06 284.5 108.06 282.84 107.96 286.5 104.2 286.5 107.06"/><polygon class="aw" points="290.94 103.83 291.61 105.59 286.5 107.06 285.92 103.97 290.94 103.83"/><polygon class="av" points="290.94 103.83 294.76 107.9 289.9 108.39 286.5 107.06 290.94 103.83"/><polygon class="ax" points="286.02 90.63 281.25 94.44 282.63 105.81 290.94 103.83 286.02 90.63"/><polygon class="av" points="254.76 93.83 250.34 95.02 254.76 97.94 254.76 93.83"/><polygon class="af" points="250.34 95.02 247.7 95.74 252.98 99.48 254.43 96.89 250.34 95.02"/><polygon class="av" points="252.98 99.48 250.61 101.87 257.45 100.97 257.21 99.91 252.98 99.48"/><polygon class="af" points="250.61 101.87 248.65 103.83 259.54 103.89 259.09 101.42 258.67 100.15 250.61 101.87"/><polygon class="ay" points="256.48 100.65 259.54 103.89 259.71 101.53 256.48 100.65"/><polygon class="ay" points="268.85 81.96 260.46 80.89 261.34 88.71 274.18 85.14 268.85 81.96"/><polygon class="af" points="272.2 73.17 268.85 81.96 276.4 77.56 272.2 73.17"/><polygon class="ax" points="273.85 78.33 268.85 81.96 274.18 86.98 277.79 86.91 276.75 81.96 273.85 78.33"/><polygon class="az" points="268.85 81.96 277.79 86.91 282.21 88.55 279.5 92.86 273.31 89.22 268.85 81.96"/><polygon class="ba" points="273.31 89.22 276.75 94.75 280.58 98.44 281.25 94.44 281.25 91.65 279.5 90.63 273.31 89.22"/><polygon class="az" points="273.31 89.22 280.58 98.44 279.94 102.94 270.63 105.35 271.13 96.58 273.31 89.22"/><polygon class="af" points="273.31 89.22 257.89 83.86 263.35 95.24 270.63 105.35 273.31 89.22"/><polygon class="ax" points="257.89 83.86 252.98 99.48 270.63 105.35 257.89 83.86"/><polygon class="bb" points="271.64 71.39 272.36 73.65 273.85 78.33 276.27 75.05 276.75 72.25 274.06 70.93 271.64 71.39"/><polygon class="av" points="263.71 54.48 263.11 69.95 276.75 72.25 282.95 63.44 277.32 54.84 270.89 52.98 263.71 54.48"/><polygon class="av" points="273.76 51.3 272.79 49.88 270.17 48.91 267.97 49.52 266.46 51.35 270.23 51.76 273.76 51.3"/><polygon class="aw" points="270.83 56.45 270.11 57.53 269.87 63.75 272.33 58.77 274.54 58.31 270.83 56.45"/><polygon class="aw" points="268.38 57.47 265.38 56.03 268.06 60.98 268.38 57.47"/><polygon class="aw" points="277.32 54.84 276.75 72.25 279.71 67.36 280.58 63.21 279.57 58.56 277.32 54.84"/><polygon class="aa" points="290.1 51.19 288.12 42.99 271.01 45.38 269.81 47.22 270.17 48.91 275.06 52.16 290.1 51.19"/><polygon class="bc" points="271.01 45.38 264.55 46.34 263.95 51.37 265.71 51.84 270.17 48.91 271.01 45.38"/><polygon class="bd" points="274.54 58.31 273.1 56.69 270.83 56.45 274.54 58.31"/><polygon class="bd" points="268.38 57.47 267.18 56.15 265.38 56.03 268.38 57.47"/><polygon class="be" points="268.38 57.47 270.11 57.53 269.87 63.75 267.84 63.57 268.38 57.47"/><polygon class="bb" points="269.87 63.75 268.79 64.95 267.84 63.57 269.87 63.75"/><polygon class="af" points="270.62 67.69 268.65 68.83 267.09 67.45 268.74 67.11 270.62 67.69"/><polygon class="az" points="273.24 66.23 270.62 67.69 267.09 67.45 265.58 66.01 267.3 66.58 268.85 66.04 270.88 66.78 273.24 66.23"/><polygon class="bc" points="277.32 54.84 280.58 63.21 283.54 59.1 286.02 53.79 277.32 54.84"/><polygon class="aa" points="284.41 55.02 287.65 54.2 290.94 55.2 293.85 66.47 295.25 69.5 295.22 71.79 288.09 68.6 280.58 63.21 284.41 55.02"/><polygon class="bc" points="280.58 63.21 277.79 69.8 280.91 75.6 284.41 78.66 286.33 82.5 289.2 85.09 293.08 78.64 295.22 71.79 280.58 63.21"/><polygon class="aa" points="295.22 71.79 299.06 73.3 304.98 77.39 298.67 80.46 293.38 84.02 289.2 85.09 295.22 71.79"/><polygon class="aa" points="277.79 69.8 276.75 72.25 273.85 78.33 279.35 79.52 284.41 78.66 277.79 69.8"/><polygon class="bd" points="284.41 78.66 282.63 85.75 283.82 91.63 288.65 87.68 289.2 85.09 284.41 78.66"/><polygon class="bc" points="283.82 91.63 293.36 87.29 298.67 80.46 289.2 85.09 283.82 91.63"/><polygon class="bf" points="304.98 77.39 293.85 66.47 295.22 71.79 304.98 77.39"/><polygon class="af" points="273.85 78.33 281.25 94.44 286.02 90.63 284.41 78.66 273.85 78.33"/><circle class="at" cx="266.7" cy="59.07" r="0.85"/><circle class="at" cx="271.82" cy="59.44" r="0.85"/><polygon class="af" points="290.1 51.19 263.95 51.37 263.71 54.48 290.94 55.2 290.1 51.19"/><polygon class="az" points="270.89 52.98 269.33 51.33 267.66 52.92 269.27 54.62 270.89 52.98"/><polygon class="aw" points="261.52 85.14 258.09 86.75 257.68 83.88 258.68 83.41 259.96 82.33 261.13 83.56 261.52 85.14"/><polygon class="bg" points="255.36 76.67 259.67 77.69 256.47 80.89 255.19 80.34 255.36 76.67"/><polygon class="bh" points="251.37 77.89 255.36 76.67 255.62 79.19 254.46 80.73 251.37 77.89"/><polygon class="ah" points="253.62 78.58 255.48 77.89 257.68 78.43 257.13 79.77 253.8 80.05 253.62 78.58"/><polygon class="bh" points="255.62 79.19 259.67 77.69 258.09 86.75 255.87 87.73 255.19 83.38 255.62 79.19"/><polygon class="bg" points="251.37 77.89 255.62 79.19 255.87 87.73 253.18 86.83 251.37 77.89"/><polygon class="av" points="261.13 83.56 260.46 80.89 257.57 80.05 255.7 82 256.52 82.88 257.81 81.58 258.68 83.41 261.13 83.56"/><polygon class="m" points="128 166.09 144.72 163.64 138.8 160.59 130.88 160.92 128 166.09"/><polygon class="f" points="126.68 145.81 127.06 151.75 129.5 152.09 128.26 144.11 127.31 144.68 126.68 145.81"/><polygon class="bi" points="107.16 152.31 117.58 148.54 119.63 159.48 107.16 152.31"/><polygon class="bj" points="117.58 148.54 140.88 152.88 129.5 158.46 118.43 158.07 117.58 148.54"/><polygon class="y" points="112.4 155.01 115.47 151.28 121.85 151.5 119.24 157.38 112.4 155.01"/><polygon class="bk" points="121.85 151.5 125.56 152.83 126.27 156.52 122.14 157.89 118.31 156.74 121.85 151.5"/><polygon class="g" points="126.27 156.52 135.41 156.12 140.88 152.88 138.8 160.59 138.03 164.08 128 166.09 126.27 161.7 126.27 156.52"/><polygon class="f" points="107.16 152.31 110.53 162.99 128 166.09 126.27 156.52 116.9 155.84 107.16 152.31"/><polygon class="bl" points="126.27 156.52 127 160.59 141.76 157.03 140.88 152.88 126.27 156.52"/><polygon class="g" points="115.19 146.4 128.26 144.11 126.68 145.81 117.76 147.27 116.55 147.27 115.19 146.4"/><polygon class="f" points="115.56 154.16 115.19 146.4 117.76 147.27 118.19 155.37 115.56 154.16"/><polygon class="bj" points="107.16 152.31 105.55 158.75 124.59 161.31 126.27 156.52 107.16 152.31"/><polygon class="bm" points="111.88 179.36 142.95 168.65 172.38 177.95 141.23 189.62 111.88 179.36"/><polygon class="bn" points="121.85 179.51 144.72 172.7 163.66 178.19 141.63 186.3 121.85 179.51"/><polygon class="bo" points="134.01 162.42 133.25 166.2 133.96 173.69 137.18 172.73 139.45 172.15 138.8 160.59 135.15 160.88 134.01 162.42"/><polygon class="bp" points="128.26 160.28 127.75 171.59 133.96 173.69 134.01 162.42 131.81 160.05 128.26 160.28"/><polygon class="bq" points="133.25 157.32 134.3 155.95 135.98 156.52 138.8 160.59 134.01 162.42 132.98 159.88 133.25 157.32"/><polygon class="br" points="131.34 156.69 128.26 160.28 134.01 162.42 133.25 157.32 132.46 156.29 131.34 156.69"/><polygon class="bp" points="135.78 154.27 135.98 156.52 133.25 157.32 133.1 154.27 135.78 154.27"/><polygon class="bq" points="131.59 154.1 131.34 156.69 133.25 157.32 133.57 154.74 132.93 153.42 131.59 154.1"/><polygon class="bs" points="133.56 151.19 135.59 151.02 135.78 154.27 133.57 154.74 133.25 153.54 133.56 151.19"/><polygon class="bt" points="131.81 150.81 133.54 151.02 133.91 151.54 133.57 154.74 131.59 154.1 131.81 150.81"/><polygon class="bu" points="131.81 150.81 133.94 150.34 135.59 151.02 133.91 151.54 131.81 150.81"/><polygon class="m" points="120.14 185.17 125.11 188.02 129.99 185.69 126.27 182.65 120.14 185.17"/><polygon class="bk" points="128.69 180.33 127.49 184.82 123.85 186.3 124.16 182.09 128.69 180.33"/><polygon class="x" points="118.04 181.51 120.14 185.17 123.85 186.3 124.59 182.44 122.99 181.13 118.04 181.51"/><polygon class="y" points="123.28 179.14 120.54 178.62 118.04 181.51 124.59 182.44 124.72 180.09 123.28 179.14"/><polygon class="x" points="123.28 179.14 125.56 178.17 128.69 180.33 124.59 182.44 123.28 179.14"/><polygon class="i" points="123.28 179.14 123.13 176.74 121.85 176.57 123.28 179.14"/><polygon class="m" points="138.93 176.17 144.09 178.37 154.31 176.57 148.55 174.49 138.93 176.17"/><polygon class="m" points="125.61 177.47 130.81 180.22 135.98 177.76 132.39 175.84 125.61 177.47"/><polygon class="m" points="130.91 182.21 131.51 184.49 134.02 185.31 137.54 186.3 141.59 184.37 143.81 183.41 142.79 182.83 142.21 181.66 146.16 181.13 145.81 179.51 139.24 181.88 137.18 181.13 133.57 181.46 131.51 180.95 130.51 181.66 130.91 182.21"/><polygon class="bv" points="135.8 173.14 133.96 177.26 130.57 178.62 130.31 175.16 135.8 173.14"/><polygon class="bw" points="124.03 173.15 125.61 177.47 130.57 178.62 130.7 175.63 129.07 173.62 124.03 173.15"/><polygon class="bw" points="130.4 171.62 129.84 173.32 130.7 175.63 135.8 173.14 133.98 169.77 131.08 170.48 130.4 171.62"/><polygon class="bx" points="126.27 169.78 124.03 173.15 130.7 175.63 130.4 171.62 128.94 170.07 126.27 169.78"/><polygon class="by" points="126.27 169.78 129.82 168.52 133.98 169.77 130.4 171.62 126.27 169.78"/><polygon class="bz" points="128.8 169.57 129.35 169.27 129.98 169.47 129.34 169.88 128.8 169.57"/><polygon class="bz" points="129.48 170.36 129.93 170.26 130.28 170.44 129.8 170.71 129.48 170.36"/><polygon class="bz" points="130.88 169.66 131.37 169.37 131.81 169.69 131.27 170.06 130.88 169.66"/><polygon class="bz" points="126.86 171.64 127.39 171.3 127.75 171.59 127.35 172.15 126.86 171.64"/><polygon class="bz" points="131.59 172.09 131.91 171.7 132.45 172.01 132.16 172.65 131.59 172.09"/><polygon class="bz" points="133.25 172.06 133.68 171.79 133.94 172.11 133.66 172.54 133.25 172.06"/><polygon class="bv" points="152.13 171.55 150.56 175.78 144.44 177.43 144.92 174.24 152.13 171.55"/><polygon class="bw" points="137.18 172.73 138.93 176.17 144.44 177.43 145.12 175.21 142.13 173.55 137.18 172.73"/><polygon class="bw" points="145.35 170.39 143.81 173.44 145.12 175.21 152.13 171.55 148.91 168.25 146.26 168.88 145.35 170.39"/><polygon class="bx" points="140.54 168.08 143.38 168.43 145.35 170.39 145.12 175.21 137.18 172.73 140.54 168.08"/><polygon class="by" points="140.54 168.08 145.15 166.72 148.91 168.25 145.35 170.39 140.54 168.08"/><polygon class="bz" points="142.98 167.99 143.68 167.92 144.09 168.33 143.11 168.58 142.98 167.99"/><polygon class="bz" points="145.2 168.52 145.93 168.33 146.25 168.6 145.63 169.01 145.2 168.52"/><polygon class="bz" points="142.21 171.1 143.15 170.57 143.6 171.1 142.74 172.04 142.21 171.1"/><polygon class="bz" points="146.8 170.95 147.19 170.66 147.57 170.91 147.25 171.55 146.8 170.95"/><polygon class="bz" points="146.08 172.06 146.42 171.94 146.76 172.13 146.2 172.71 146.08 172.06"/><polygon class="bz" points="148.75 170.72 149.09 170.23 149.62 170.55 149.24 171.13 148.75 170.72"/><polygon class="bz" points="140.82 169.67 141.21 169.48 141.63 169.91 140.56 170.53 140.82 169.67"/><polygon class="i" points="146.42 178.93 139.8 181.38 140.57 181.71 146.64 180.05 146.42 178.93"/><polygon class="ca" points="140.57 181.71 141.53 180.73 142.95 181.06 142.79 182.83 140.85 183.2 140.57 181.71"/><polygon class="ca" points="138.95 180.73 138.15 178.93 136.38 179.1 135.78 180.52 137.64 181.8 138.41 181.25 138.95 180.73"/><polygon class="ca" points="133.91 180.83 135.78 180.52 136.25 182.91 135.93 183.88 133.8 183.3 133.91 180.83"/><polygon class="cb" points="136.38 182.51 138.03 182.83 138.63 184.28 137.37 185.42 135.59 184.91 136.38 182.51"/><polygon class="cc" points="132.59 180.01 132.14 178.73 133.79 178.19 135.03 179.51 133.91 180.83 133.1 180.73 132.59 180.01"/><polygon class="cc" points="131.51 180.95 130.81 180.22 129.5 180.73 129.76 182.07 130.91 182.21 131.51 180.95"/><polygon class="cd" points="138.95 180.73 140.57 181.71 140.09 183.2 138.03 182.83 137.54 182.07 137.81 181.38 138.95 180.73"/><polygon class="ca" points="131.51 180.95 132.59 180.01 133.91 180.83 133.22 182.11 132.39 182.51 131.51 180.95"/><polygon class="cc" points="135.78 180.52 137.11 180.22 137.81 181.38 138.03 182.83 136.08 183.41 135.1 182.97 134.76 182.2 135.78 180.52"/><polygon class="cc" points="133.91 180.83 132.71 181.43 132.39 182.51 133.8 183.3 134.53 183.1 134.76 182.2 133.91 180.83"/><polygon class="cc" points="140.57 181.71 139.24 183.04 139.8 184.49 141.59 184.37 141.93 182.99 140.57 181.71"/><polygon class="ca" points="133.8 183.3 133.22 184.08 134.02 185.31 135.59 184.91 136.08 183.41 134.76 182.2 133.8 183.3"/><polygon class="cc" points="132.39 182.51 131.14 182.71 130.6 183.54 131.51 184.49 132.71 183.97 132.39 182.51"/><polygon class="m" points="150.34 186.21 155.94 188.86 165.9 186.21 161.9 183.97 150.34 186.21"/><polygon class="m" points="154.93 174.16 157.61 176.02 162.86 174.94 159.85 172.89 154.93 174.16"/><polygon class="m" points="163.09 176.8 166.36 178.93 170.34 177.3 167.46 175.21 163.09 176.8"/><polygon class="ca" points="157.7 158.97 162.4 159.7 160.05 163.37 156.97 162.81 157.7 158.97"/><polygon class="cc" points="153.04 159.7 157.7 158.97 157.48 161.02 156.2 162.99 153.04 159.7"/><polygon class="ca" points="157.57 164.35 162.61 165.59 157.1 169.37 157.57 164.35"/><polygon class="cc" points="153.34 165.21 157.57 164.35 157.7 167.04 156.67 169.01 153.34 165.21"/><polygon class="cb" points="157.48 161.02 162.4 159.7 160.77 167.04 157.7 167.04 157.1 162.6 157.48 161.02"/><polygon class="ca" points="157.7 167.04 157.48 161.02 153.04 159.7 154.82 165.83 157.7 167.04"/><polygon class="cc" points="157.7 167.04 162.61 165.59 160.91 174.33 158 174.94 157.31 171.94 157.7 167.04"/><polygon class="cd" points="153.34 165.21 154.93 174.16 158 174.94 157.7 167.04 153.34 165.21"/><polygon class="cd" points="170.26 168.88 166.22 167.69 165.13 171.55 167.55 172.34 170.26 168.88"/><polygon class="cc" points="162.06 168.49 166.22 167.69 166.36 169.59 165.53 171.32 162.06 168.49"/><polygon class="cc" points="166.36 169.59 170.26 168.88 168.74 176.8 166.1 177.76 165.9 173.84 166.36 169.59"/><polygon class="cd" points="162.06 168.49 163.09 176.8 166.1 177.76 166.36 169.59 162.06 168.49"/><polygon class="ce" points="163.11 181.42 162.7 185.74 156.67 188.02 155.94 183.42 163.11 181.42"/><polygon class="cf" points="150.01 182.17 150.34 186.21 156.67 188.02 157.1 184.05 153.98 182.44 150.01 182.17"/><polygon class="b" points="161.24 179.26 163.11 181.42 157.1 184.05 155.94 180.66 161.24 179.26"/><polygon class="e" points="152.57 179.99 150.01 182.17 157.1 184.05 156.59 181.14 155.35 180.2 152.57 179.99"/><polygon class="h" points="156.67 179.26 155.94 179.99 156.59 181.14 161.24 179.26 161.18 177.43 157.31 178.32 156.67 179.26"/><polygon class="cg" points="152.76 177.64 152.57 179.99 156.59 181.14 156.67 179.26 155.26 178.07 152.76 177.64"/><polygon class="w" points="152.76 177.64 157.61 176.02 161.18 177.43 156.67 179.26 152.76 177.64"/><polygon class="m" points="68.44 176.32 77.83 179.59 90.22 176.48 104.32 180.1 115.47 175.88 100.82 169.78 90.22 164.2 67.96 166.81 64.99 172.54 68.44 176.32"/><polygon class="n" points="68.02 148.74 67.2 162.52 68.97 172.51 79.62 169.44 74.73 146.19 69.43 146.57 68.02 148.74"/><polygon class="o" points="57.11 145.8 53.09 170.09 68.97 172.51 68.02 148.74 65.92 146.33 57.11 145.8"/><polygon class="p" points="57.11 145.8 66.84 143.18 74.73 146.19 68.02 148.74 57.11 145.8"/><polygon class="q" points="62.31 158.12 58.53 159.15 57.11 161.15 54.65 165.28 56.08 175.06 63.27 171.64 62.31 158.12"/><polygon class="o" points="45.74 157.43 43.55 173.56 56.08 175.06 57.11 161.15 54.03 158.39 45.74 157.43"/><polygon class="p" points="55.94 152.87 45.74 157.43 57.11 161.15 62.31 158.12 55.49 155.9 55.94 152.87"/><polygon class="q" points="68.74 166.75 71.27 175.42 61.03 178.67 58.72 172.03 68.74 166.75"/><polygon class="r" points="47.65 170.52 46.51 177.01 61.03 178.67 59.67 172.51 56.3 170.81 47.65 170.52"/><polygon class="p" points="62.86 165.8 56.55 168.74 51.52 167.96 47.65 170.52 59.67 172.51 68.74 166.75 62.86 165.8"/><polygon class="av" points="96.47 147.21 98.59 150.79 102.62 152.87 100.85 147.21 96.47 147.21"/><polygon class="aw" points="101.44 162.52 103.78 170.09 102.05 172.51 96.47 167.2 101.44 162.52"/><polygon class="ch" points="103.78 170.09 108.8 170.52 107.95 173.03 105.73 173.56 103.33 173.73 101.83 171.87 103.78 170.09"/><polygon class="ci" points="108.8 170.52 110.9 170.61 111.84 171.87 106.97 175.06 105.73 174.93 105.73 173.56 108.8 170.52"/><polygon class="av" points="98.04 166.75 101.83 171.87 100.61 173.27 98.36 173.73 94.25 171.47 94.79 168.94 98.04 166.75"/><polygon class="ci" points="101.83 171.87 105.73 173.56 103.45 176.11 99.55 177.99 98.36 173.73 101.83 171.87"/><polygon class="ac" points="105.73 173.56 108.97 175.08 109.24 176.48 99.55 177.99 105.73 173.56"/><polygon class="cj" points="90.22 176.48 101.44 162.52 99.19 155.88 95.83 151.54 91.55 153.88 89.49 163.94 90.22 176.48"/><polygon class="ck" points="87.36 151.76 80.5 162.52 76.92 174.35 90.22 176.48 91.55 153.88 87.36 151.76"/><polygon class="aw" points="97.78 150.6 100.26 150.69 102.62 152.87 99.19 155.88 97.78 150.6"/><polygon class="av" points="88.19 144.29 96.47 147.21 94.25 151.54 86.25 151.84 88.19 144.29"/><polygon class="cl" points="70.44 141.88 68.56 147.21 69.43 149.76 66.56 152.87 76.92 174.35 87.48 150.6 87.36 145.01 81.51 141.88 70.44 141.88"/><polygon class="cj" points="81.51 141.88 87.48 150.6 88.19 144.29 81.51 141.88"/><polygon class="cm" points="84.49 116.15 90.22 118.24 87.45 124.46 85.44 120.42 84.49 116.15"/><polygon class="cl" points="61.77 121.19 59.45 120.1 56.12 116.41 71.27 105.19 73.73 109.34 74.73 112.76 68.17 118.41 61.77 121.19"/><polygon class="cn" points="71.27 105.19 84 107.47 84.49 116.15 79.04 115.15 74.73 112.76 71.27 105.19"/><polygon class="ck" points="56.12 116.41 59.36 126.2 61.24 123.69 61.77 121.19 56.12 116.41"/><polygon class="ch" points="71.97 106.73 71.36 107.15 72.15 108.99 70.68 110 71.21 111.22 72.74 110.21 73.51 111.89 74.15 111.5 73.73 109.34 71.97 106.73"/><polygon class="co" points="71.97 106.73 72.85 106.94 73.6 108.5 75.42 108.92 75.65 110.07 74.17 109.77 74.96 111.57 74.15 111.5 71.97 106.73"/><polygon class="cp" points="71.06 162.22 78.53 164.06 91.55 153.88 99.19 155.88 98.04 150.79 74.94 156.25 66.56 152.87 71.06 162.22"/><polygon class="av" points="84.49 116.15 91.41 135.56 81.9 139.32 78.53 144.85 71.97 140.58 69.43 124.38 76.03 118 84.49 116.15"/><polygon class="aw" points="69.43 124.38 75.91 141.88 81.9 139.32 80.34 141.64 81.28 143.4 80.32 149.67 68.79 140.58 68.46 139.53 67.2 139.33 63.25 136.22 66.42 130.63 69.43 124.38"/><polygon class="aw" points="84 121.73 81.47 127.55 80.23 130.28 73.73 125.79 76.19 124.2 77.9 124.14 79.86 123.37 81.25 122.19 84 121.73"/><polygon class="be" points="77.9 124.13 80.23 130.28 81.65 130.37 82.23 129.54 79.85 123.35 77.9 124.13"/><polygon class="bb" points="82.23 129.54 81.64 131.11 80.23 130.28 82.23 129.54"/><polygon class="bb" points="81.9 139.32 81.28 143.4 74 142.31 81.9 139.32"/><polygon class="bb" points="68.97 137.76 68.79 140.58 67.2 139.33 68.97 137.76"/><polygon class="bb" points="68.02 136.99 66.28 135.17 65.1 136.22 68.02 136.99"/><polygon class="cm" points="75.75 120.93 76.03 116.67 74.73 112.76 61.77 121.19 57.11 130.89 63.37 128.09 69.43 124.38 72.18 122.88 75.75 120.93"/><polygon class="cq" points="69.43 124.38 68.87 135.91 66.58 133.3 63.25 136.22 57.11 130.89 69.43 124.38"/><polygon class="cr" points="74.73 112.76 84.49 116.15 75.75 120.93 74.73 112.76"/><polygon class="cm" points="77.9 124.13 77.38 122.77 73.73 125.79 77.9 124.13"/><polygon class="cm" points="79.85 123.35 84 121.73 79.39 122.02 79.85 123.35"/><polygon class="cs" points="80.35 134.21 82.17 132.43 84.61 132.53 83.22 134.43 80.35 134.21"/><polygon class="be" points="80.06 152.11 92.09 149.67 92.92 151.55 91.55 153.88 79 160.44 78.87 155.88 80.06 152.11"/><polygon class="aw" points="92.09 149.67 96.47 147.21 98.04 150.79 96.94 154.38 91.55 153.88 92.09 149.67"/><polygon class="be" points="96.47 147.21 100.26 150.69 99.19 155.88 96.94 154.38 96.47 147.21"/><polygon class="cn" points="68.56 147.21 80.06 152.11 78.53 164.06 66.56 152.87 68.56 147.21"/><circle class="at" cx="76.92" cy="127.66" r="0.96"/><circle class="at" cx="82.77" cy="125.4" r="0.96"/><polygon class="cj" points="78.53 134.37 83.3 135.26 85.92 131.49 82.77 133.98 78.53 134.37"/><polygon class="u" points="163.46 157.18 167.96 157.85 175.43 157.28 189.43 153 190.33 147.85 194.47 146.9 180.66 144.17 163.46 157.18"/><polygon class="ct" points="177.69 153.14 180.08 150.8 182.75 152.89 181.63 154.3 175.43 157.28 175.86 155.69 177.69 153.14"/><polygon class="cu" points="182.57 151.4 179.96 151.7 181.63 154.3 183.39 153.47 182.57 151.4"/><polygon class="cv" points="183.22 146.51 186.01 146.18 188.83 147.23 187.97 148.99 184.13 150.84 183.22 146.51"/><polygon class="cu" points="188.65 145.88 186.01 146.18 187.97 148.99 190.33 147.85 188.65 145.88"/><polygon class="cv" points="170.38 155.74 184.13 150.84 182.24 141.88 174.7 143.52 169.72 145.96 170.38 155.74"/><polygon class="cw" points="164.56 144.84 164.21 153.1 170.38 155.74 172.2 149.97 171.25 146.04 167.83 144.62 164.56 144.84"/><polygon class="cw" points="179.71 143.74 184.13 150.84 184.51 143.41 179.71 143.74"/><polygon class="cx" points="189.17 128.35 190.37 132.54 185.6 132.14 185.91 129.93 189.17 128.35"/><polygon class="cu" points="182.22 131.9 184.23 128.08 189.17 128.35 185.6 132.14 182.22 131.9"/><polygon class="cx" points="170.09 129.04 169.24 133.38 173.78 132.1 173.11 129.87 170.09 129.04"/><polygon class="cu" points="177.46 130.76 174.83 127.38 170.09 129.04 173.78 132.1 176.17 131.93 177.46 130.76"/><polygon class="cv" points="185.6 132.14 184.73 141.1 178.13 140.55 177.69 134.14 185.6 132.14"/><path class="cw" d="M173.78,132.1l-1.5,6.44s5.71,2.16,5.85,2,1-5.36,1-5.36L177.61,133Z"/><polygon class="ct" points="173.78 132.1 177.46 130.76 185.6 132.14 179.13 135.19 173.78 132.1"/><polygon class="ct" points="172.28 138.54 164.56 144.84 171.25 146.04 184.51 143.41 178.39 140.3 172.28 138.54"/><polygon class="af" points="172.5 137.6 184.73 141.1 184.51 143.41 172.28 138.54 172.5 137.6"/><polygon class="cw" points="177.87 149.26 177.69 153.14 175.43 157.28 170.38 155.74 174.03 151.17 177.87 149.26"/><polygon class="ct" points="171.25 146.04 177.87 149.26 170.38 155.74 171.25 146.04"/><polygon class="cu" points="167.93 145.44 170.38 155.74 164.21 153.1 167.93 145.44"/><polygon class="cy" points="170.38 155.74 163.46 157.18 160.56 154.82 164.21 153.1 170.38 155.74"/><polygon class="cx" points="163.46 157.18 158.39 148.81 158.21 154.98 163.46 157.18"/><polygon class="u" points="199.61 166.34 196.8 167.63 206.48 170.17 214.35 167.17 203.49 163.76 199.61 166.34"/><path class="ax" d="M205.49,159l1,7.26c.08,0,.39.3.88.69a6.62,6.62,0,0,0,3.11-5.61,6.49,6.49,0,0,0,0-.77c-.63-.66-1.19-.94-1.29-1.3l-.53-1.23Z"/><path class="af" d="M203.17,159l.49,7.33c.07,0,.64,1.08,1.52,1.49a6.62,6.62,0,0,0,2.22-.88l.42-7.38-3.63-1.83Z"/><path class="af" d="M205.36,155.42l.06,1.35,2.4,2.75,2.64,1a6.6,6.6,0,0,0-4.11-5.36A1.34,1.34,0,0,1,205.36,155.42Z"/><path class="cz" d="M200,156.86l1.21,1.37,2.94.73,3.63.56-1.47-4.35a6.48,6.48,0,0,0-2.45-.48,6.56,6.56,0,0,0-3.64,1.09C200,156.38,200.2,156.73,200,156.86Z"/><path class="da" d="M201.05,162.24l3.14-3.28-3.93-3.18a6.61,6.61,0,0,0-2.67,3.55c.26.5.54.77.5.94Z"/><path class="af" d="M197.58,159.33a6.71,6.71,0,0,0-.3,2,6.57,6.57,0,0,0,2.34,5c1,0,1.21-.07,1.48.1l.9-1.73-.81-4Z"/><path class="cz" d="M199.61,166.34a6.61,6.61,0,0,0,4.29,1.57,6.77,6.77,0,0,0,1.28-.12l-1-8.83-3,1.71Z"/><polygon class="aw" points="292.36 150.82 293.48 152.52 298.24 152.69 299.72 150.17 292.36 150.82"/><polygon class="db" points="306.88 175.86 306.88 179.47 302.52 180.14 295.01 179.47 301.26 173.85 304.28 173.98 306.88 175.86"/><rect class="dc" x="295.01" y="179.47" width="11.87" height="1.51"/><polygon class="dd" points="314.33 161.32 309.71 170.34 305.37 171.41 301.85 166.26 302.47 158.12 314.33 161.32"/><polygon class="db" points="322.71 179.07 323.07 181.88 318.71 182.55 314.36 181.88 316.1 177.16 317.48 176.82 322.71 179.07"/><rect class="dc" x="314.36" y="181.88" width="8.72" height="1.51"/><polygon class="u" points="335 180.05 307.56 173.87 288.38 180.4 312.33 187.63 335 180.05"/><polygon class="de" points="311.63 162.54 313.94 170.4 319.18 173.59 323.01 171.98 323.53 158.94 316.09 158.08 311.63 162.54"/><polygon class="df" points="322.77 158.38 311.63 162.54 302.47 158.12 316.64 157.84 322.77 158.38"/><polygon class="dg" points="294.44 144.66 300.08 146.48 301.85 144.47 302.91 137.49 302.35 132.81 301.95 126.96 294.44 144.66"/><polygon class="dg" points="307.27 124.1 318.02 123.23 319.67 126.06 324.75 128.17 323.53 158.94 308.88 158.94 301.36 157.27 301.95 126.96 307.27 124.1"/><polygon class="dh" points="316.96 125.44 315.86 130.71 308.78 135.37 306.92 128.65 307.27 124.1 308.71 124.25 311.35 126.06 316.96 125.44"/><polygon class="de" points="318.02 123.23 319.67 126.06 317.65 128.54 314.55 130.43 311.35 126.06 307.9 128.84 307.06 126.67 307.27 124.1 308.91 122.31 318.02 123.23"/><polygon class="av" points="298.1 117.82 308.4 120.8 311.35 126.06 314.87 123.47 317.75 120.17 318.19 117.98 319.67 115.76 320.84 115.92 323.36 112.02 321.15 110.24 317.61 112.97 315.96 111.63 322 101.35 318.78 97.94 307.44 96.93 304.19 94.69 301.52 101.53 298.1 117.82"/><polygon class="aw" points="302.98 101.66 304.5 105.49 306.92 111.47 310.56 107.05 314.55 103.84 311.94 102.76 310.17 102.78 308.71 103.1 307.27 102.12 305.87 101.43 302.98 101.66"/><polygon class="di" points="307.57 100.18 302.98 101.66 307.27 102.12 307.57 100.18"/><polygon class="di" points="310.17 102.78 314.55 103.84 310.83 100.88 310.17 102.78"/><polygon class="be" points="307.27 102.12 304.97 110.99 306.92 111.47 310.17 102.78 307.27 102.12"/><polygon class="bb" points="304.98 110.99 305.56 112.53 306.92 111.47 304.98 110.99"/><polygon class="bb" points="302.34 114.27 309.4 115.25 308.81 116.17 302.43 115.36 302.34 114.27"/><polygon class="bb" points="321.52 111.97 318.91 113.48 320.98 113.67 321.52 111.97"/><polygon class="aw" points="318.78 97.94 314.55 103.84 310.83 120.29 311.38 121.62 311.35 126.06 318.02 123.23 318.85 118.55 319.1 116.33 317.65 115.44 317.61 112.97 315.96 111.63 322 101.35 318.78 97.94"/><polygon class="di" points="301.76 92.84 304.19 94.69 307.29 97.36 308.71 92.72 308.37 88.08 301.76 92.84"/><polygon class="dj" points="308.37 88.08 324.43 95.57 321.54 97.55 318.46 98.21 307.29 97.36 308.37 88.08"/><polygon class="cr" points="318.46 98.21 321.54 101.33 323.83 101.37 325.75 100.45 324.43 95.58 318.46 98.21"/><polygon class="di" points="321.54 101.33 315.49 111.82 317.61 113.22 321.09 110.51 323.12 112.08 321.74 114.53 328.46 111.56 325.75 100.45 321.54 101.33"/><polygon class="bb" points="317.65 115.44 318.85 118.55 319.67 115.76 317.65 115.44"/><polygon class="aj" points="308.78 135.37 322.53 131.45 319.67 126.06 308.78 135.37"/><polygon class="aj" points="308.78 135.37 308.88 158.94 299 157.68 301.95 126.96 304.51 126.37 307.27 124.1 308.78 135.37"/><polygon class="dk" points="307.27 124.1 301.95 126.96 308.78 135.37 307.27 124.1"/><rect class="dl" x="305.03" y="138.48" width="1.99" height="1.99" transform="translate(-9 257.22) rotate(-45)"/><rect class="dl" x="305.03" y="152.48" width="1.99" height="1.99" transform="translate(-18.9 261.32) rotate(-45)"/><rect class="dm" x="313.98" y="136.78" width="6.13" height="1.51" transform="translate(64.59 373.55) rotate(-66.52)"/><rect class="ca" x="315.15" y="137.69" width="1.29" height="5.28" transform="translate(150.8 443.97) rotate(-85.44)"/><polygon class="dn" points="324.75 128.17 330.43 144.07 326.07 142.79 323.49 141 324.75 128.17"/><polygon class="do" points="330.43 144.07 323.77 152.92 320.56 152.27 318.46 149.4 323.49 141 330.43 144.07"/><polygon class="aw" points="318.46 149.4 321.32 156.37 323.77 152.92 318.46 149.4"/><polygon class="cp" points="321.32 156.37 323.53 158.94 323.77 152.92 321.32 156.37"/><circle class="at" cx="304.23" cy="105.49" r="0.88"/><circle class="at" cx="310.57" cy="106.94" r="0.88"/><polygon class="bb" points="298.1 117.82 310.83 120.29 313 120.67 311.35 126.06 308.17 121.19 298.1 117.82"/><polygon class="dd" points="313.94 170.4 323.01 171.98 322.71 179.07 316.1 177.16 313.94 170.4"/><polygon class="df" points="309.71 170.34 301.85 166.26 301.26 173.85 306.88 175.86 309.71 170.34"/><polygon class="bf" points="283.25 146.57 295.84 142.74 307.06 146.34 295.62 150.98 283.25 146.57"/><polygon class="aa" points="283.25 146.57 286.52 149.19 295.45 151.68 296.01 150.97 295.62 150.57 283.25 146.57"/><polygon class="dp" points="307.06 146.34 305.42 148.16 295.45 151.68 295.62 150.57 307.06 146.34"/><polygon class="dq" points="294.53 148.41 300.56 146.96 302.08 144.75 293.48 145.28 294.53 148.41"/><polygon class="dr" points="288.2 143.65 290.33 146.96 294.53 148.41 294.06 145.87 292.82 144.22 288.2 143.65"/><polygon class="ds" points="294.53 141.28 293.68 143.35 294.06 145.87 302.08 144.75 300.71 139.95 294.53 141.28"/><polygon class="dt" points="290.33 139.48 288.2 143.65 294.06 145.87 294.83 142.11 294 140.5 290.33 139.48"/><polygon class="du" points="290.33 139.48 296.01 138.03 300.71 139.95 294.83 142.11 290.33 139.48"/><polygon class="dv" points="294.61 139.55 295.21 138.99 295.97 139.38 295.21 139.87 294.61 139.55"/><polygon class="dv" points="293.85 140.37 294.65 140.24 295.17 140.63 294.37 141 293.85 140.37"/><polygon class="dv" points="296.83 139.83 297.22 139.55 297.84 139.72 297.39 140.26 296.83 139.83"/><polygon class="dv" points="290.75 141.99 291.5 141.58 291.74 142.22 291.13 142.59 290.75 141.99"/><polygon class="dv" points="296.55 143.28 296.96 143.04 297.5 143.52 296.61 144.06 296.55 143.28"/><polygon class="dv" points="298.64 141.75 299.05 141.43 299.59 141.88 298.99 142.25 298.64 141.75"/><polygon class="cr" points="230.26 123.08 231.86 127.38 225.39 126.55 230.26 123.08"/><polygon class="u" points="275.64 140.15 258.85 143.72 237.19 142.54 222.28 147.06 208.56 148.16 197.33 144.93 192.41 143.37 223.93 136.14 275.64 140.15"/><polygon class="aw" points="269.78 137.41 273.53 137.92 275.64 140.15 272.71 140.15 269.78 137.41"/><polygon class="aw" points="257.21 134.37 265.6 137.34 265.84 138.78 265.15 139.98 254.92 140.15 255.44 136.08 257.21 134.37"/><polygon class="av" points="265.6 137.34 268.39 135.25 272.71 140.15 265.15 139.98 265.6 137.34"/><polygon class="bb" points="254.92 140.15 257.21 134.37 254.92 133.51 254.92 140.15"/><polygon class="aw" points="205.68 144.93 198.88 133.28 199.28 131.68 200.88 129.88 211.84 142.85 205.68 144.93"/><polygon class="av" points="216.28 135.77 209.55 146.5 205.68 144.93 210.48 132.89 216.25 132.89 216.28 135.77"/><polygon class="bb" points="200.88 129.88 198.31 129.2 195.1 128.87 194.19 128.87 192.38 129.64 198.88 133.28 200.88 129.88"/><polygon class="aw" points="195.1 128.87 196.01 125.3 192.38 129.64 195.1 128.87"/><polygon class="bb" points="261.66 122.95 261.66 126.14 257.52 124.1 261.66 122.95"/><polygon class="av" points="247.25 140.58 247.68 136.12 250.06 131.38 253.39 120.45 255.44 123.08 255.35 125.71 254.92 140.15 247.25 140.58"/><polygon class="aw" points="261.66 122.95 253.39 120.45 255.35 125.71 261.66 122.95"/><polygon class="dw" points="242.56 126.88 250.06 131.38 247.25 140.58 240.69 141.86 240.69 134.71 242.56 126.88"/><polygon class="dx" points="236.68 131.38 242.56 126.88 240.69 141.86 237.19 142.54 236.34 136.97 236.68 131.38"/><polygon class="dy" points="228.16 127.87 229.63 134.45 229.63 140.58 222.68 144.42 224.49 127.81 228.16 127.87"/><polygon class="dz" points="228.16 127.87 229.63 140.58 237.19 142.54 236.68 131.38 231.86 127.38 229.91 126.76 228.16 127.87"/><polygon class="bb" points="202.45 130.16 212.97 130.97 215.04 134.45 202.45 130.16"/><polygon class="cq" points="193.71 112.07 192.18 115.48 196.92 117.66 198.64 111.8 193.71 112.07"/><polygon class="cm" points="198.86 105.73 192.38 109.76 196.92 117.66 200.07 109.92 198.86 105.73"/><polygon class="di" points="192.38 109.76 197.75 112.58 199.65 115.62 196.92 117.66 192.38 109.76"/><polygon class="ea" points="198.51 114.52 194.34 119.02 197.28 122.07 197.64 119.89 196.86 119.07 197.97 117.86 198.79 116.9 198.51 114.52"/><polygon class="av" points="216.25 125.05 212.41 130.74 211.96 130.72 207.41 130.97 202.45 130.16 195.1 128.87 198.62 107.22 212.26 117.32 216.25 125.05"/><polygon class="aw" points="209.69 121.56 207.41 130.97 212.41 131.65 218.24 137.86 219.29 126.33 213.37 118.33 209.69 121.56"/><polygon class="aw" points="201.54 112.98 201.93 113.81 201.15 118.56 198.88 112.92 200.23 112.5 201.54 112.98"/><polygon class="aw" points="203.5 114.06 205.04 113.47 208.24 115.02 204.47 117.62 202.67 120.51 203.5 114.06"/><polygon class="bb" points="211.18 125.96 218.47 129.2 218.52 126.88 214.85 120.53 210.89 121.53 211.18 125.96"/><polygon class="be" points="203.5 114.06 201.93 113.81 200.88 120.21 201.77 120.81 202.67 120.51 203.5 114.06"/><polygon class="bb" points="202.67 120.51 201.56 121.44 200.88 120.21 202.67 120.51"/><polygon class="bb" points="198.62 107.22 209.46 122.38 212.17 123.57 212.41 120.72 205.04 113.47 198.86 105.73 198.62 107.22"/><circle class="at" cx="199.65" cy="115.6" r="0.95"/><circle class="at" cx="205.45" cy="116.69" r="0.95"/><polygon class="cm" points="227.4 125.97 231.86 127.38 225.12 128.28 214.51 120.48 227.4 125.97"/><polygon class="di" points="222.14 115.81 234.05 119.23 225.12 128.28 221.54 129.3 216.25 125.05 215.21 123.77 210.26 120.23 222.14 115.81"/><polygon class="cr" points="223.02 118.69 234.05 119.23 222.63 115.63 222.28 116.84 223.02 118.69"/><polygon class="cm" points="209.55 103.07 221.22 104.54 223.02 118.69 215.85 111.1 209.55 103.07"/><polygon class="eb" points="201.59 111.19 198.88 112.92 201.54 112.98 201.59 111.19"/><polygon class="ea" points="207.37 123.84 201.5 121.89 197.33 122.51 200.57 128.28 207.37 123.84"/><polygon class="di" points="201.77 124.1 199.43 124.58 200.27 126.11 201.89 126.33 203.72 125.15 201.77 124.1"/><polygon class="l" points="203.72 125.15 199.43 124.58 198.6 123.06 205.55 123.96 203.72 125.15"/><polygon class="cu" points="211.84 121.5 211.18 125.96 218.52 126.88 217.21 125.03 213.14 124.47 213.41 122.42 211.84 121.5"/><polygon class="cq" points="219.09 120.83 221.54 129.3 211.84 121.5 219.09 120.83"/><polygon class="dz" points="218.52 126.88 216.28 135.77 218.24 137.86 219.29 130.52 218.52 126.88"/><polygon class="aw" points="218.16 141.31 206.29 143.68 205.51 144.65 205.68 146.25 218.01 147.06 218.52 143.96 218.16 141.31"/><polygon class="av" points="218.52 126.88 225.12 128.28 222.28 147.06 218.01 147.06 218.52 126.88"/><polygon class="av" points="206.29 143.68 203.35 140.95 201.59 144.18 201.59 146.14 205.68 146.25 206.29 143.68"/><polygon class="aw" points="203.35 140.95 197.33 144.93 201.59 146.14 203.35 140.95"/><polygon class="cm" points="197.06 103.1 209.69 121.56 225.12 121.13 212.12 112.07 197.06 103.1"/><polygon class="ec" points="197.06 103.1 206.09 99.06 225.12 121.13 197.06 103.1"/><polygon class="ed" points="150.94 111.72 144.93 108.43 144.93 113.58 148.69 114.08 150.94 111.72"/><polygon class="ec" points="148.95 112.05 155.71 112.38 152.13 107.35 144.93 108.43 148.95 112.05"/><polygon class="u" points="159.17 122.86 167.72 123.57 170.43 120.47 171.49 122.24 178.43 122.61 186.49 117.53 185.83 114.73 190.09 113.18 177.96 108.05 144.93 113.58 148.28 117.24 159.17 122.86"/><polygon class="ed" points="174.31 116.82 165.93 115.94 165.93 117.24 166.4 118.38 171.49 122.24 174.31 116.82"/><polygon class="di" points="172.26 117.24 176.77 115.1 181.95 115.26 182.68 117.88 171.49 122.24 172.26 117.24"/><polygon class="di" points="166.4 121.55 166.4 118.38 162.8 118.08 159.21 118.38 159.17 122.86 166.4 121.55"/><polygon class="di" points="148.95 112.05 155.42 113.84 161.42 116.49 159.21 118.38 148.28 117.24 148.95 112.05"/><polygon class="di" points="180.95 114.04 185.83 114.73 186.62 110.55 183.04 110.55 180.48 111.63 180.95 114.04"/><polygon class="cr" points="165.93 115.94 174.02 111.92 180.48 111.63 181.95 115.26 172.26 117.24 165.93 115.94"/><polygon class="cr" points="163.85 114.33 153.85 111.24 148.95 112.05 161.15 116.4 162.33 115.71 163.85 114.33"/><polygon class="ec" points="165.93 115.94 166.4 118.38 159.21 118.38 162.78 114.73 165.93 115.94"/><polygon class="ec" points="180.48 111.63 181.67 107.63 186.62 110.55 180.48 111.63"/><polygon class="dx" points="153.85 111.24 152.28 107.26 148.95 103.52 156.42 97.38 166.57 102.41 178.69 89.97 186.49 99.44 181.31 107.63 180.48 111.63 173.79 113.61 166.03 114.93 160.29 113.75 153.85 111.24"/><polyline class="dw" points="182.86 88.04 166.57 102.41 156.42 97.38 153.77 87.15 160.29 84.31 167.72 83.4 174.31 79.88 182.86 88.04"/><polygon class="ee" points="162.08 91.83 166.4 95.42 172.43 92.04 167.4 86.02 162.08 91.83"/><polygon class="dw" points="148.95 103.52 156.43 106.55 153.85 111.24 148.95 103.52"/><polygon class="dw" points="177.96 108.05 186.49 99.44 180.48 111.63 177.96 108.05"/><polygon class="dx" points="160.29 81.22 165.51 82.77 167.4 86.02 166.14 89.58 162.08 91.83 153.77 87.15 160.29 81.22"/><polyline class="ef" points="182.86 88.04 175.58 95.79 171.31 92.47 182.86 88.04"/><polygon class="ef" points="166.4 95.42 156.42 97.38 161.68 101.77 166.4 95.42"/><polygon class="ee" points="160.29 113.75 156.43 106.55 166.4 95.42 162.08 91.83 167.4 86.02 177.53 98.15 173.49 102.6 177.96 108.05 173.79 113.61 165.93 115.94 160.29 113.75"/><polygon class="eg" points="173.49 102.6 166.4 95.42 161.42 107.41 165.93 115.94 173.49 102.6"/><polygon class="ea" points="161.68 110.55 164.1 108.65 169.09 113.71 164.95 114.08 161.68 110.55"/><polygon class="ea" points="164.55 107.2 166.42 109.06 168.25 107.79 166.75 104.75 164.55 107.2"/><polygon class="ea" points="167.4 109.91 170.93 107.12 172.76 109.35 168.32 111.92 167.4 109.91"/><polygon class="ef" points="158.8 78.65 169.76 78.15 174.31 79.88 167.4 86.02 160.29 81.22 158.8 78.65"/><polygon class="dx" points="158.8 78.65 167.3 75.98 174.31 75.7 175.8 78.03 174.31 79.88 158.8 78.65"/><polygon class="dw" points="158.8 78.65 165.51 74.22 170.37 73.54 174.31 75.7 158.8 78.65"/><polygon class="ef" points="165.51 74.22 170.1 68.44 174.31 75.7 165.51 74.22"/></svg>