<?xml version="1.0" encoding="utf-8"?>
<!-- Generator: Adobe Illustrator 23.0.6, SVG Export Plug-In . SVG Version: 6.00 Build 0)  -->
<svg version="1.1" id="Layer_1" xmlns="http://www.w3.org/2000/svg" xmlns:xlink="http://www.w3.org/1999/xlink" x="0px" y="0px"
	 viewBox="0 0 150 150" style="enable-background:new 0 0 150 150;" xml:space="preserve">
<style type="text/css">
	.st0{fill-rule:evenodd;clip-rule:evenodd;fill:#8CE0DC;}
	.st1{fill-rule:evenodd;clip-rule:evenodd;fill:#72CBCC;}
	.st2{fill-rule:evenodd;clip-rule:evenodd;fill:#50A9AA;}
	.st3{fill-rule:evenodd;clip-rule:evenodd;fill:#1C7678;}
	.st4{fill-rule:evenodd;clip-rule:evenodd;fill:#165E60;}
	.st5{fill-rule:evenodd;clip-rule:evenodd;fill:#369496;}
	.st6{fill-rule:evenodd;clip-rule:evenodd;fill:#318FA6;}
	.st7{fill-rule:evenodd;clip-rule:evenodd;fill:#27788C;}
	.st8{fill-rule:evenodd;clip-rule:evenodd;fill:#3AA0BA;}
	.st9{fill-rule:evenodd;clip-rule:evenodd;fill:#A3A3A3;}
	.st10{fill-rule:evenodd;clip-rule:evenodd;fill:#DDDDDC;}
</style>
<g>
	<path class="st0" d="M12.2,11.7L36.3-0.1l39.6,20.2L55.1,37.4l-26.9-8.6L12.2,11.7z"/>
	<path class="st1" d="M29.9,26.6l23.8,7.8L35.3,51.6L29.9,26.6z"/>
	<path class="st2" d="M36.3,45.6l-6.5-18.9L12.2,11.7L0,40.9l31.6,31.8l4.7-13.3V45.6z"/>
	<path class="st3" d="M78.5,52.4l-2.6-32.3L36.3,45.6l-4.7,27.1l8.3-2.6l10.7-5.5L78.5,52.4z"/>
	<path class="st4" d="M52.1,117.1l7.9,33.1l-30.1-15.3L12.2,109L52.1,117.1z"/>
	<path class="st3" d="M50.5,119.6l3.2-10.6l8.9-8.4l6.5,6.8l6.9,5.7l-2.6,4.4L60,150.2L50.5,119.6z"/>
	<path class="st5" d="M62.6,100.7l-24.5-7.9L12.2,109l38.3,10.6L62.6,100.7z"/>
	<path class="st6" d="M110.8,51.6l31.1,25.2l-31.1,20.9L89.3,63.6L110.8,51.6z"/>
	<path class="st7" d="M110.8,54.6l-4.3-8.2l2.2-12L150,51.6l-8.1,25.2L110.8,54.6z"/>
	<path class="st8" d="M108.7,34.4L99,49l-6.8,8.2l-2.9,6.4l21.5-9L108.7,34.4z"/>
	<path class="st9" d="M61.7,39.1l18.6,10.3l12.3,9.1l-3.3,5l-26.5-12L61.7,39.1z"/>
	<path class="st10" d="M61.7,39.1l7.3-1.7L99,49l-6.3,9.5L61.7,39.1z M100,67.9l-30.9,39.5l5.9,6.1l19.3-22l19.5-24.5L100,67.9z"/>
	<path class="st9" d="M113.8,67.1l2.6,15.5l-43,34.9l1.6-3.9L113.8,67.1z M39.8,69.1v16.3l2,24.5l7-5.8l1.7-39.6L39.8,69.1z"/>
	<path class="st10" d="M31.6,72.7l4.5,31.4l5.7,5.8l-2-40.8L31.6,72.7z"/>
</g>
</svg>
