<?xml version="1.0" standalone="no"?><!DOCTYPE svg PUBLIC "-//W3C//DTD SVG 1.1//EN" "http://www.w3.org/Graphics/SVG/1.1/DTD/svg11.dtd"><svg t="1723021601034" class="icon" viewBox="0 0 1024 1024" version="1.1" xmlns="http://www.w3.org/2000/svg" p-id="10061" xmlns:xlink="http://www.w3.org/1999/xlink" width="200" height="200"><path d="M316.018 500H252c-49.626 0-90-40.374-90-90s40.374-90 90-90h64.018c16.568 0 30 13.432 30 30v120c0 16.568-13.432 30-30 30z" fill="#FAAF96" p-id="10062"></path><path d="M772 500h-64.018c-16.568 0-30-13.432-30-30v-120c0-16.568 13.432-30 30-30H772c49.626 0 90 40.374 90 90s-40.374 90-90 90z" fill="#F09682" p-id="10063"></path><path d="M912 1024H112c-16.568 0-30-13.432-30-30v-124c0-104.766 85.234-190 190-190h480c104.766 0 190 85.234 190 190v124c0 16.568-13.432 30-30 30z" fill="#676767" p-id="10064"></path><path d="M752 680H512v344h400c16.568 0 30-13.432 30-30v-124c0-104.766-85.234-190-190-190z" fill="#505050" p-id="10065"></path><path d="M359.908 598.286a30 30 0 0 1 27.5-41.992h249.188a30.002 30.002 0 0 1 27.498 41.992L512 872z" fill="#FAAF96" p-id="10066"></path><path d="M661.692 569.858a30 30 0 0 0-25.098-13.564H512V872l152.092-273.714a30.004 30.004 0 0 0-2.4-28.428z" fill="#F09682" p-id="10067"></path><path d="M636.594 586.292L512 872l197.5-91.568a30.002 30.002 0 0 0 16.486-34.494L712 690l69.762-55.808c15.314-12.25 14.948-35.66-0.74-47.426l-90.174-67.63z" fill="#676767" p-id="10068"></path><path d="M333.154 519.134l-90.174 67.63c-15.688 11.766-16.054 35.176-0.74 47.426L312 690l-13.984 55.94a30.004 30.004 0 0 0 16.486 34.494L512 872l-124.594-285.708z" fill="#787878" p-id="10069"></path><path d="M512 660c-126.822 0-230-103.178-230-230v-62.958c0-16.568 13.432-30 30-30h400c16.568 0 30 13.432 30 30V430c0 126.822-103.178 230-230 230z" fill="#FFC8B4" p-id="10070"></path><path d="M712 337.042H512V660c126.822 0 230-103.178 230-230v-62.958c0-16.568-13.432-30-30-30z" fill="#FAAF96" p-id="10071"></path><path d="M512 420c-183.866 0-370-51.524-370-150s186.134-150 370-150c183.868 0 370 51.524 370 150s-186.132 150-370 150z" fill="#787878" p-id="10072"></path><path d="M882 270c0-98.476-186.132-150-370-150v300c183.868 0 370-51.524 370-150z" fill="#676767" p-id="10073"></path><path d="M512 299.884c-70.554 0.004-141.082-14.006-211.142-42.03a30 30 0 0 1-18.276-33.738l26.972-134.856C319.898 37.54 365.688 0 418.434 0c29.66 0 57.542 11.55 78.514 32.522 8.298 8.296 21.804 8.298 30.104 0C548.026 11.55 575.908 0 605.566 0c52.744 0 98.536 37.54 108.88 89.26l26.97 134.856a30 30 0 0 1-18.276 33.738c-70.042 28.018-140.604 42.028-211.14 42.03z" fill="#676767" p-id="10074"></path><path d="M714.448 89.26C704.102 37.54 658.31 0 605.566 0c-29.658 0-57.542 11.55-78.514 32.522A21.22 21.22 0 0 1 512 38.746v261.14c70.536-0.002 141.098-14.014 211.142-42.03a30.002 30.002 0 0 0 18.276-33.738z" fill="#505050" p-id="10075"></path></svg>